<?xml version="1.0" encoding="utf-8"?>
<!-- Generator: Adobe Illustrator 23.0.1, SVG Export Plug-In . SVG Version: 6.00 Build 0)  -->
<svg version="1.1" id="Calque_1" xmlns="http://www.w3.org/2000/svg" xmlns:xlink="http://www.w3.org/1999/xlink" x="0px" y="0px"
	 viewBox="0 0 566.93 566.93" style="enable-background:new 0 0 566.93 566.93;" xml:space="preserve">
<style type="text/css">
	.st0{fill:url(#SVGID_1_);stroke:#205337;stroke-width:4.247;stroke-linecap:round;stroke-linejoin:round;stroke-miterlimit:10;}
	.st1{fill:url(#SVGID_2_);stroke:#205337;stroke-width:4.247;stroke-linecap:round;stroke-linejoin:round;stroke-miterlimit:10;}
	.st2{fill:url(#SVGID_3_);stroke:#205337;stroke-width:4.247;stroke-linecap:round;stroke-linejoin:round;stroke-miterlimit:10;}
	.st3{fill:url(#SVGID_4_);stroke:#205337;stroke-width:4.247;stroke-linecap:round;stroke-linejoin:round;stroke-miterlimit:10;}
	.st4{fill:#FDEB7F;stroke:#205337;stroke-width:4.247;stroke-linecap:round;stroke-linejoin:round;stroke-miterlimit:10;}
	.st5{fill:url(#SVGID_5_);stroke:#205337;stroke-width:4.247;stroke-linecap:round;stroke-linejoin:round;stroke-miterlimit:10;}
	.st6{fill:url(#SVGID_6_);stroke:#205337;stroke-width:4.247;stroke-linecap:round;stroke-linejoin:round;stroke-miterlimit:10;}
	.st7{fill:url(#SVGID_7_);stroke:#205337;stroke-width:10.6175;stroke-linecap:round;stroke-linejoin:round;stroke-miterlimit:10;}
	.st8{fill:#205337;}
</style>
<g>
	<linearGradient id="SVGID_1_" gradientUnits="userSpaceOnUse" x1="235.2158" y1="390.8353" x2="233.741" y2="435.2493">
		<stop  offset="0" style="stop-color:#1E6356"/>
		<stop  offset="0.0385" style="stop-color:#216759"/>
		<stop  offset="0.2984" style="stop-color:#307F6E"/>
		<stop  offset="0.5504" style="stop-color:#3B927E"/>
		<stop  offset="0.789" style="stop-color:#429E89"/>
		<stop  offset="1" style="stop-color:#44A28D"/>
	</linearGradient>
	<path class="st0" d="M212.21,417.79h44.37v-34.66H234.4v13.98C216.6,397.11,211.46,407.17,212.21,417.79z"/>
	<linearGradient id="SVGID_2_" gradientUnits="userSpaceOnUse" x1="264.7285" y1="347.9333" x2="221.7004" y2="347.3562">
		<stop  offset="0" style="stop-color:#1E6356"/>
		<stop  offset="0.197" style="stop-color:#22685B"/>
		<stop  offset="0.492" style="stop-color:#2C7868"/>
		<stop  offset="0.8466" style="stop-color:#3C9380"/>
		<stop  offset="1" style="stop-color:#44A28D"/>
	</linearGradient>
	<polygon class="st1" points="269.75,313.21 256.69,359.09 259.76,390.6 231.33,390.6 226.72,339.59 243.16,304.53 	"/>
	<linearGradient id="SVGID_3_" gradientUnits="userSpaceOnUse" x1="332.0728" y1="391.1947" x2="331.6526" y2="435.6311">
		<stop  offset="0" style="stop-color:#1E6356"/>
		<stop  offset="0.0385" style="stop-color:#216759"/>
		<stop  offset="0.2984" style="stop-color:#307F6E"/>
		<stop  offset="0.5504" style="stop-color:#3B927E"/>
		<stop  offset="0.789" style="stop-color:#429E89"/>
		<stop  offset="1" style="stop-color:#44A28D"/>
	</linearGradient>
	<path class="st2" d="M354.15,416.73h-44.37v-34.66h22.18v13.98C349.76,396.04,354.91,406.11,354.15,416.73z"/>
	<linearGradient id="SVGID_4_" gradientUnits="userSpaceOnUse" x1="296.6114" y1="346.503" x2="339.6433" y2="346.503">
		<stop  offset="0" style="stop-color:#1E6356"/>
		<stop  offset="0.1965" style="stop-color:#22685A"/>
		<stop  offset="0.4841" style="stop-color:#2B7767"/>
		<stop  offset="0.826" style="stop-color:#3A917E"/>
		<stop  offset="1" style="stop-color:#44A28D"/>
	</linearGradient>
	<polygon class="st3" points="296.61,312.15 309.67,358.03 306.6,389.53 335.03,389.53 339.64,338.52 323.2,303.47 	"/>
	<path class="st4" d="M430.51,248.83c6.68-4.29,15.58-2.35,19.86,4.34c4.29,6.68,2.35,15.58-4.34,19.86
		c-4.59,2.94-10.22,2.95-14.68,0.5l-17.05,10.94l-6.96-10.84l16.7-10.72C423.3,257.54,425.64,251.96,430.51,248.83z"/>
	<linearGradient id="SVGID_5_" gradientUnits="userSpaceOnUse" x1="337.8348" y1="282.1801" x2="428.0887" y2="282.1801">
		<stop  offset="0" style="stop-color:#1E6356"/>
		<stop  offset="0.1965" style="stop-color:#22685A"/>
		<stop  offset="0.4841" style="stop-color:#2B7767"/>
		<stop  offset="0.826" style="stop-color:#3A917E"/>
		<stop  offset="1" style="stop-color:#44A28D"/>
	</linearGradient>
	<polygon class="st5" points="417.05,263.66 428.09,281 384.74,310.16 337.83,280.21 352.02,254.2 386.31,277.45 	"/>
	<path class="st4" d="M136.68,250.82c-6.68-4.29-15.58-2.35-19.86,4.34c-4.29,6.68-2.35,15.58,4.34,19.86
		c4.59,2.94,10.22,2.95,14.68,0.5l17.05,10.94l6.96-10.84l-16.7-10.72C143.89,259.53,141.55,253.95,136.68,250.82z"/>
	<linearGradient id="SVGID_6_" gradientUnits="userSpaceOnUse" x1="220.9052" y1="283.8837" x2="130.6562" y2="285.0514">
		<stop  offset="0" style="stop-color:#1E6356"/>
		<stop  offset="0.1965" style="stop-color:#22685A"/>
		<stop  offset="0.4841" style="stop-color:#2B7767"/>
		<stop  offset="0.826" style="stop-color:#3A917E"/>
		<stop  offset="1" style="stop-color:#44A28D"/>
	</linearGradient>
	<polygon class="st6" points="150.14,265.65 139.11,282.99 182.46,312.15 229.36,282.2 215.17,256.19 180.88,279.44 	"/>
	<radialGradient id="SVGID_7_" cx="287.6064" cy="242.9572" r="90.3447" gradientUnits="userSpaceOnUse">
		<stop  offset="0" style="stop-color:#44A28D"/>
		<stop  offset="0.4731" style="stop-color:#43A18B"/>
		<stop  offset="0.6436" style="stop-color:#409A86"/>
		<stop  offset="0.765" style="stop-color:#3A907D"/>
		<stop  offset="0.8632" style="stop-color:#328270"/>
		<stop  offset="0.9463" style="stop-color:#277162"/>
		<stop  offset="1" style="stop-color:#1E6356"/>
	</radialGradient>
	<circle class="st7" cx="287.61" cy="242.96" r="94.51"/>
	<g>
		<path class="st8" d="M273.57,181.61h28.75l45.82,108.4h-31.98l-7.84-19.22H266.8l-7.69,19.22h-31.37L273.57,181.61z
			 M299.71,247.57l-11.99-30.6l-12.15,30.6H299.71z"/>
	</g>
</g>
</svg>
