<?xml version="1.0" encoding="utf-8"?>
<!-- Generator: Adobe Illustrator 23.0.1, SVG Export Plug-In . SVG Version: 6.00 Build 0)  -->
<svg version="1.1" xmlns="http://www.w3.org/2000/svg" xmlns:xlink="http://www.w3.org/1999/xlink" x="0px" y="0px"
	 viewBox="0 0 566.93 566.93" style="enable-background:new 0 0 566.93 566.93;" xml:space="preserve">
<style type="text/css">
	.st0{display:none;}
	.st1{display:inline;}
	.st2{fill:url(#SVGID_1_);stroke:#205337;stroke-width:4.247;stroke-linecap:round;stroke-linejoin:round;stroke-miterlimit:10;}
	.st3{fill:url(#SVGID_2_);stroke:#205337;stroke-width:4.247;stroke-linecap:round;stroke-linejoin:round;stroke-miterlimit:10;}
	.st4{fill:url(#SVGID_3_);stroke:#205337;stroke-width:4.247;stroke-linecap:round;stroke-linejoin:round;stroke-miterlimit:10;}
	.st5{fill:url(#SVGID_4_);stroke:#205337;stroke-width:4.247;stroke-linecap:round;stroke-linejoin:round;stroke-miterlimit:10;}
	.st6{fill:#FDEB7F;stroke:#205337;stroke-width:4.247;stroke-linecap:round;stroke-linejoin:round;stroke-miterlimit:10;}
	.st7{fill:url(#SVGID_5_);stroke:#205337;stroke-width:4.247;stroke-linecap:round;stroke-linejoin:round;stroke-miterlimit:10;}
	.st8{fill:url(#SVGID_6_);stroke:#205337;stroke-width:4.247;stroke-linecap:round;stroke-linejoin:round;stroke-miterlimit:10;}
	.st9{fill:url(#SVGID_7_);stroke:#205337;stroke-width:10.6175;stroke-linecap:round;stroke-linejoin:round;stroke-miterlimit:10;}
	.st10{fill:#205337;}
	.st11{fill:url(#SVGID_8_);stroke:#BA8224;stroke-width:4.2591;stroke-linecap:round;stroke-linejoin:round;stroke-miterlimit:10;}
	.st12{fill:url(#SVGID_9_);stroke:#BA8224;stroke-width:4.2591;stroke-linecap:round;stroke-linejoin:round;stroke-miterlimit:10;}
	.st13{fill:url(#SVGID_10_);stroke:#BA8224;stroke-width:4.2591;stroke-linecap:round;stroke-linejoin:round;stroke-miterlimit:10;}
	.st14{fill:url(#SVGID_11_);stroke:#BA8224;stroke-width:4.2591;stroke-linecap:round;stroke-linejoin:round;stroke-miterlimit:10;}
	.st15{fill:#FDEB7F;stroke:#BA8224;stroke-width:4.2591;stroke-linecap:round;stroke-linejoin:round;stroke-miterlimit:10;}
	.st16{fill:url(#SVGID_12_);stroke:#BA8224;stroke-width:4.2591;stroke-linecap:round;stroke-linejoin:round;stroke-miterlimit:10;}
	.st17{fill:url(#SVGID_13_);stroke:#BA8224;stroke-width:4.2591;stroke-linecap:round;stroke-linejoin:round;stroke-miterlimit:10;}
	
		.st18{fill:url(#SVGID_14_);stroke:#BA8224;stroke-width:10.6477;stroke-linecap:round;stroke-linejoin:round;stroke-miterlimit:10;}
	.st19{fill:#BA8224;}
</style>
<g id="Calque_1" class="st0">
	<g class="st1">
		<linearGradient id="SVGID_1_" gradientUnits="userSpaceOnUse" x1="235.2158" y1="390.8353" x2="233.741" y2="435.2493">
			<stop  offset="0" style="stop-color:#1E6356"/>
			<stop  offset="0.0385" style="stop-color:#216759"/>
			<stop  offset="0.2984" style="stop-color:#307F6E"/>
			<stop  offset="0.5504" style="stop-color:#3B927E"/>
			<stop  offset="0.789" style="stop-color:#429E89"/>
			<stop  offset="1" style="stop-color:#44A28D"/>
		</linearGradient>
		<path class="st2" d="M212.21,417.79h44.37v-34.66H234.4v13.98C216.6,397.11,211.46,407.17,212.21,417.79z"/>
		<linearGradient id="SVGID_2_" gradientUnits="userSpaceOnUse" x1="264.7285" y1="347.9333" x2="221.7004" y2="347.3562">
			<stop  offset="0" style="stop-color:#1E6356"/>
			<stop  offset="0.197" style="stop-color:#22685B"/>
			<stop  offset="0.492" style="stop-color:#2C7868"/>
			<stop  offset="0.8466" style="stop-color:#3C9380"/>
			<stop  offset="1" style="stop-color:#44A28D"/>
		</linearGradient>
		<polygon class="st3" points="269.75,313.21 256.69,359.09 259.76,390.6 231.33,390.6 226.72,339.59 243.16,304.53 		"/>
		<linearGradient id="SVGID_3_" gradientUnits="userSpaceOnUse" x1="332.0728" y1="391.1947" x2="331.6526" y2="435.6311">
			<stop  offset="0" style="stop-color:#1E6356"/>
			<stop  offset="0.0385" style="stop-color:#216759"/>
			<stop  offset="0.2984" style="stop-color:#307F6E"/>
			<stop  offset="0.5504" style="stop-color:#3B927E"/>
			<stop  offset="0.789" style="stop-color:#429E89"/>
			<stop  offset="1" style="stop-color:#44A28D"/>
		</linearGradient>
		<path class="st4" d="M354.15,416.73h-44.37v-34.66h22.18v13.98C349.76,396.04,354.91,406.11,354.15,416.73z"/>
		<linearGradient id="SVGID_4_" gradientUnits="userSpaceOnUse" x1="296.6114" y1="346.503" x2="339.6433" y2="346.503">
			<stop  offset="0" style="stop-color:#1E6356"/>
			<stop  offset="0.1965" style="stop-color:#22685A"/>
			<stop  offset="0.4841" style="stop-color:#2B7767"/>
			<stop  offset="0.826" style="stop-color:#3A917E"/>
			<stop  offset="1" style="stop-color:#44A28D"/>
		</linearGradient>
		<polygon class="st5" points="296.61,312.15 309.67,358.03 306.6,389.53 335.03,389.53 339.64,338.52 323.2,303.47 		"/>
		<path class="st6" d="M430.51,248.83c6.68-4.29,15.58-2.35,19.86,4.34c4.29,6.68,2.35,15.58-4.34,19.86
			c-4.59,2.94-10.22,2.95-14.68,0.5l-17.05,10.94l-6.96-10.84l16.7-10.72C423.3,257.54,425.64,251.96,430.51,248.83z"/>
		<linearGradient id="SVGID_5_" gradientUnits="userSpaceOnUse" x1="337.8348" y1="282.1801" x2="428.0887" y2="282.1801">
			<stop  offset="0" style="stop-color:#1E6356"/>
			<stop  offset="0.1965" style="stop-color:#22685A"/>
			<stop  offset="0.4841" style="stop-color:#2B7767"/>
			<stop  offset="0.826" style="stop-color:#3A917E"/>
			<stop  offset="1" style="stop-color:#44A28D"/>
		</linearGradient>
		<polygon class="st7" points="417.05,263.66 428.09,281 384.74,310.16 337.83,280.21 352.02,254.2 386.31,277.45 		"/>
		<path class="st6" d="M136.68,250.82c-6.68-4.29-15.58-2.35-19.86,4.34c-4.29,6.68-2.35,15.58,4.34,19.86
			c4.59,2.94,10.22,2.95,14.68,0.5l17.05,10.94l6.96-10.84l-16.7-10.72C143.89,259.53,141.55,253.95,136.68,250.82z"/>
		<linearGradient id="SVGID_6_" gradientUnits="userSpaceOnUse" x1="220.9052" y1="283.8837" x2="130.6562" y2="285.0514">
			<stop  offset="0" style="stop-color:#1E6356"/>
			<stop  offset="0.1965" style="stop-color:#22685A"/>
			<stop  offset="0.4841" style="stop-color:#2B7767"/>
			<stop  offset="0.826" style="stop-color:#3A917E"/>
			<stop  offset="1" style="stop-color:#44A28D"/>
		</linearGradient>
		<polygon class="st8" points="150.14,265.65 139.11,282.99 182.46,312.15 229.36,282.2 215.17,256.19 180.88,279.44 		"/>
		<radialGradient id="SVGID_7_" cx="287.6064" cy="242.9572" r="90.3447" gradientUnits="userSpaceOnUse">
			<stop  offset="0" style="stop-color:#44A28D"/>
			<stop  offset="0.4731" style="stop-color:#43A18B"/>
			<stop  offset="0.6436" style="stop-color:#409A86"/>
			<stop  offset="0.765" style="stop-color:#3A907D"/>
			<stop  offset="0.8632" style="stop-color:#328270"/>
			<stop  offset="0.9463" style="stop-color:#277162"/>
			<stop  offset="1" style="stop-color:#1E6356"/>
		</radialGradient>
		<circle class="st9" cx="287.61" cy="242.96" r="94.51"/>
		<g>
			<path class="st10" d="M273.57,181.61h28.75l45.82,108.4h-31.98l-7.84-19.22H266.8l-7.69,19.22h-31.37L273.57,181.61z
				 M299.71,247.57l-11.99-30.6l-12.15,30.6H299.71z"/>
		</g>
	</g>
</g>
<g id="Calque_2">
	<g>
		<linearGradient id="SVGID_8_" gradientUnits="userSpaceOnUse" x1="217.2396" y1="400.1727" x2="261.8046" y2="400.1727">
			<stop  offset="0" style="stop-color:#F7EA3E"/>
			<stop  offset="0.1185" style="stop-color:#F3E53F"/>
			<stop  offset="0.2696" style="stop-color:#E8D642"/>
			<stop  offset="0.4384" style="stop-color:#D7BE45"/>
			<stop  offset="0.62" style="stop-color:#C09F46"/>
			<stop  offset="0.8101" style="stop-color:#A67943"/>
			<stop  offset="1" style="stop-color:#8D503D"/>
		</linearGradient>
		<path class="st11" d="M212.59,417.55h44.49v-34.76h-22.25v14.02C217,396.81,211.83,406.9,212.59,417.55z"/>
		<linearGradient id="SVGID_9_" gradientUnits="userSpaceOnUse" x1="222.0874" y1="347.1259" x2="265.242" y2="347.1259">
			<stop  offset="0" style="stop-color:#F7EA3E"/>
			<stop  offset="0.1146" style="stop-color:#F3E53F"/>
			<stop  offset="0.2608" style="stop-color:#E8D642"/>
			<stop  offset="0.4241" style="stop-color:#D7BE45"/>
			<stop  offset="0.5998" style="stop-color:#C09F46"/>
			<stop  offset="0.7837" style="stop-color:#A67943"/>
			<stop  offset="0.9675" style="stop-color:#8D503D"/>
		</linearGradient>
		<polygon class="st12" points="270.3,312.68 257.2,358.69 260.28,390.28 231.77,390.28 227.14,339.12 243.63,303.97 		"/>
		<linearGradient id="SVGID_10_" gradientUnits="userSpaceOnUse" x1="348.2988" y1="398.8919" x2="303.7125" y2="399.509">
			<stop  offset="0" style="stop-color:#F7EA3E"/>
			<stop  offset="0.1185" style="stop-color:#F3E53F"/>
			<stop  offset="0.2696" style="stop-color:#E8D642"/>
			<stop  offset="0.4384" style="stop-color:#D7BE45"/>
			<stop  offset="0.62" style="stop-color:#C09F46"/>
			<stop  offset="0.8101" style="stop-color:#A67943"/>
			<stop  offset="1" style="stop-color:#8D503D"/>
		</linearGradient>
		<path class="st13" d="M354.94,416.49h-44.49v-34.76h22.25v14.02C350.53,395.74,355.7,405.84,354.94,416.49z"/>
		<linearGradient id="SVGID_11_" gradientUnits="userSpaceOnUse" x1="344.5789" y1="345.8175" x2="301.4303" y2="346.5302">
			<stop  offset="0" style="stop-color:#F7EA3E"/>
			<stop  offset="0.1185" style="stop-color:#F3E53F"/>
			<stop  offset="0.2696" style="stop-color:#E8D642"/>
			<stop  offset="0.4384" style="stop-color:#D7BE45"/>
			<stop  offset="0.62" style="stop-color:#C09F46"/>
			<stop  offset="0.8101" style="stop-color:#A67943"/>
			<stop  offset="1" style="stop-color:#8D503D"/>
		</linearGradient>
		<polygon class="st14" points="297.23,311.61 310.33,357.62 307.25,389.22 335.76,389.22 340.39,338.06 323.9,302.91 		"/>
		<path class="st15" d="M430.45,248.11c6.7-4.3,15.62-2.35,19.92,4.35c4.3,6.7,2.35,15.62-4.35,19.92
			c-4.6,2.95-10.25,2.96-14.73,0.5l-17.1,10.97l-6.98-10.87l16.75-10.75C423.22,256.84,425.56,251.25,430.45,248.11z"/>
		<linearGradient id="SVGID_12_" gradientUnits="userSpaceOnUse" x1="446.6437" y1="281.8468" x2="356.1311" y2="281.5103">
			<stop  offset="0" style="stop-color:#F7EA3E"/>
			<stop  offset="0.1185" style="stop-color:#F3E53F"/>
			<stop  offset="0.2696" style="stop-color:#E8D642"/>
			<stop  offset="0.4384" style="stop-color:#D7BE45"/>
			<stop  offset="0.62" style="stop-color:#C09F46"/>
			<stop  offset="0.8101" style="stop-color:#A67943"/>
			<stop  offset="1" style="stop-color:#8D503D"/>
		</linearGradient>
		<polygon class="st16" points="416.95,262.98 428.02,280.37 384.54,309.62 337.51,279.58 351.74,253.49 386.12,276.81 		"/>
		<path class="st15" d="M136.85,250.11c-6.7-4.3-15.62-2.35-19.92,4.35c-4.3,6.7-2.35,15.62,4.35,19.92
			c4.6,2.95,10.25,2.96,14.73,0.5l17.1,10.97l6.98-10.87l-16.75-10.75C144.08,258.84,141.73,253.25,136.85,250.11z"/>
		<linearGradient id="SVGID_13_" gradientUnits="userSpaceOnUse" x1="129.8639" y1="283.5501" x2="220.3749" y2="283.5501">
			<stop  offset="0" style="stop-color:#F7EA3E"/>
			<stop  offset="0.1185" style="stop-color:#F3E53F"/>
			<stop  offset="0.2696" style="stop-color:#E8D642"/>
			<stop  offset="0.4384" style="stop-color:#D7BE45"/>
			<stop  offset="0.62" style="stop-color:#C09F46"/>
			<stop  offset="0.8101" style="stop-color:#A67943"/>
			<stop  offset="1" style="stop-color:#8D503D"/>
		</linearGradient>
		<polygon class="st17" points="150.35,264.97 139.28,282.36 182.76,311.61 229.79,281.57 215.56,255.49 181.17,278.81 		"/>
		<radialGradient id="SVGID_14_" cx="284.1809" cy="242.5209" r="94.775" gradientUnits="userSpaceOnUse">
			<stop  offset="0" style="stop-color:#F7EA3E"/>
			<stop  offset="0.215" style="stop-color:#F5E73F"/>
			<stop  offset="0.3655" style="stop-color:#EFDF41"/>
			<stop  offset="0.4964" style="stop-color:#E4D043"/>
			<stop  offset="0.616" style="stop-color:#D5BD45"/>
			<stop  offset="0.7279" style="stop-color:#C4A446"/>
			<stop  offset="0.8342" style="stop-color:#AF8745"/>
			<stop  offset="0.9341" style="stop-color:#9B6841"/>
			<stop  offset="1" style="stop-color:#8D503D"/>
		</radialGradient>
		<circle class="st18" cx="284.18" cy="242.52" r="94.77"/>
		<g>
			<path class="st19" d="M243.36,189.88h54c13.24,0,22.56,3.31,28.73,9.48c4.21,4.21,6.77,9.78,6.77,17v0.3
				c0,12.18-6.92,19.4-16.25,23.46c12.79,4.21,20.91,11.43,20.91,25.72v0.3c0,18.05-14.74,29.03-39.86,29.03h-54.3V189.88z
				 M290.14,231.84c8.87,0,13.84-3.01,13.84-9.18v-0.3c0-5.72-4.51-9.02-13.24-9.02h-18.95v18.5H290.14z M294.35,271.7
				c8.87,0,13.99-3.46,13.99-9.63v-0.3c0-5.72-4.51-9.48-14.29-9.48h-22.26v19.4H294.35z"/>
		</g>
	</g>
</g>
</svg>
