<?xml version="1.0" encoding="utf-8"?>
<!-- Generator: Adobe Illustrator 23.0.1, SVG Export Plug-In . SVG Version: 6.00 Build 0)  -->
<svg version="1.1" xmlns="http://www.w3.org/2000/svg" xmlns:xlink="http://www.w3.org/1999/xlink" x="0px" y="0px"
	 viewBox="0 0 566.93 566.93" style="enable-background:new 0 0 566.93 566.93;" xml:space="preserve">
<style type="text/css">
	.st0{display:none;}
	.st1{display:inline;}
	.st2{fill:url(#SVGID_1_);stroke:#205337;stroke-width:4.247;stroke-linecap:round;stroke-linejoin:round;stroke-miterlimit:10;}
	.st3{fill:url(#SVGID_2_);stroke:#205337;stroke-width:4.247;stroke-linecap:round;stroke-linejoin:round;stroke-miterlimit:10;}
	.st4{fill:url(#SVGID_3_);stroke:#205337;stroke-width:4.247;stroke-linecap:round;stroke-linejoin:round;stroke-miterlimit:10;}
	.st5{fill:url(#SVGID_4_);stroke:#205337;stroke-width:4.247;stroke-linecap:round;stroke-linejoin:round;stroke-miterlimit:10;}
	.st6{fill:#FDEB7F;stroke:#205337;stroke-width:4.247;stroke-linecap:round;stroke-linejoin:round;stroke-miterlimit:10;}
	.st7{fill:url(#SVGID_5_);stroke:#205337;stroke-width:4.247;stroke-linecap:round;stroke-linejoin:round;stroke-miterlimit:10;}
	.st8{fill:url(#SVGID_6_);stroke:#205337;stroke-width:4.247;stroke-linecap:round;stroke-linejoin:round;stroke-miterlimit:10;}
	.st9{fill:url(#SVGID_7_);stroke:#205337;stroke-width:10.6175;stroke-linecap:round;stroke-linejoin:round;stroke-miterlimit:10;}
	.st10{fill:#205337;}
	.st11{fill:url(#SVGID_8_);stroke:#BA8224;stroke-width:4.2591;stroke-linecap:round;stroke-linejoin:round;stroke-miterlimit:10;}
	.st12{fill:url(#SVGID_9_);stroke:#BA8224;stroke-width:4.2591;stroke-linecap:round;stroke-linejoin:round;stroke-miterlimit:10;}
	.st13{fill:url(#SVGID_10_);stroke:#BA8224;stroke-width:4.2591;stroke-linecap:round;stroke-linejoin:round;stroke-miterlimit:10;}
	.st14{fill:url(#SVGID_11_);stroke:#BA8224;stroke-width:4.2591;stroke-linecap:round;stroke-linejoin:round;stroke-miterlimit:10;}
	.st15{fill:#FDEB7F;stroke:#BA8224;stroke-width:4.2591;stroke-linecap:round;stroke-linejoin:round;stroke-miterlimit:10;}
	.st16{fill:url(#SVGID_12_);stroke:#BA8224;stroke-width:4.2591;stroke-linecap:round;stroke-linejoin:round;stroke-miterlimit:10;}
	.st17{fill:url(#SVGID_13_);stroke:#BA8224;stroke-width:4.2591;stroke-linecap:round;stroke-linejoin:round;stroke-miterlimit:10;}
	
		.st18{fill:url(#SVGID_14_);stroke:#BA8224;stroke-width:10.6477;stroke-linecap:round;stroke-linejoin:round;stroke-miterlimit:10;}
	.st19{fill:#BA8224;}
	.st20{fill:url(#SVGID_15_);stroke:#4A1817;stroke-width:4.2731;stroke-linecap:round;stroke-linejoin:round;stroke-miterlimit:10;}
	.st21{fill:url(#SVGID_16_);stroke:#4A1817;stroke-width:4.2731;stroke-linecap:round;stroke-linejoin:round;stroke-miterlimit:10;}
	.st22{fill:url(#SVGID_17_);stroke:#4A1817;stroke-width:4.2731;stroke-linecap:round;stroke-linejoin:round;stroke-miterlimit:10;}
	.st23{fill:url(#SVGID_18_);stroke:#4A1817;stroke-width:4.2731;stroke-linecap:round;stroke-linejoin:round;stroke-miterlimit:10;}
	.st24{fill:#FDEB7F;stroke:#4A1817;stroke-width:4.2731;stroke-linecap:round;stroke-linejoin:round;stroke-miterlimit:10;}
	.st25{fill:url(#SVGID_19_);stroke:#4A1817;stroke-width:4.2731;stroke-linecap:round;stroke-linejoin:round;stroke-miterlimit:10;}
	.st26{fill:url(#SVGID_20_);stroke:#4A1817;stroke-width:4.2731;stroke-linecap:round;stroke-linejoin:round;stroke-miterlimit:10;}
	
		.st27{fill:url(#SVGID_21_);stroke:#4A1817;stroke-width:10.6829;stroke-linecap:round;stroke-linejoin:round;stroke-miterlimit:10;}
	.st28{fill:#3F1718;}
	.st29{fill:url(#SVGID_22_);stroke:#282C53;stroke-width:5.3446;stroke-linecap:round;stroke-linejoin:round;stroke-miterlimit:10;}
	.st30{fill:url(#SVGID_23_);stroke:#282C53;stroke-width:5.3446;stroke-linecap:round;stroke-linejoin:round;stroke-miterlimit:10;}
	.st31{fill:url(#SVGID_24_);stroke:#282C53;stroke-width:5.3446;stroke-linecap:round;stroke-linejoin:round;stroke-miterlimit:10;}
	.st32{fill:url(#SVGID_25_);stroke:#282C53;stroke-width:5.3446;stroke-linecap:round;stroke-linejoin:round;stroke-miterlimit:10;}
	.st33{fill:#FDEB7F;stroke:#282C53;stroke-width:4.2757;stroke-linecap:round;stroke-linejoin:round;stroke-miterlimit:10;}
	.st34{fill:url(#SVGID_26_);stroke:#282C53;stroke-width:5.3446;stroke-linecap:round;stroke-linejoin:round;stroke-miterlimit:10;}
	.st35{fill:url(#SVGID_27_);stroke:#282C53;stroke-width:5.3446;stroke-linecap:round;stroke-linejoin:round;stroke-miterlimit:10;}
	
		.st36{fill:url(#SVGID_28_);stroke:#282C53;stroke-width:10.6892;stroke-linecap:round;stroke-linejoin:round;stroke-miterlimit:10;}
	.st37{fill:#272C50;}
	.st38{fill:url(#SVGID_29_);stroke:#232322;stroke-width:5.6601;stroke-linecap:round;stroke-linejoin:round;stroke-miterlimit:10;}
	.st39{fill:#553D1C;stroke:#232322;stroke-width:5.6601;stroke-linecap:round;stroke-linejoin:round;stroke-miterlimit:10;}
	.st40{fill:#F1C927;stroke:#F1C927;stroke-width:0.7199;stroke-linecap:round;stroke-linejoin:round;stroke-miterlimit:10;}
	.st41{fill:#409A47;}
</style>
<g id="Calque_1" class="st0">
	<g class="st1">
		<linearGradient id="SVGID_1_" gradientUnits="userSpaceOnUse" x1="235.2158" y1="390.8353" x2="233.741" y2="435.2493">
			<stop  offset="0" style="stop-color:#1E6356"/>
			<stop  offset="0.0385" style="stop-color:#216759"/>
			<stop  offset="0.2984" style="stop-color:#307F6E"/>
			<stop  offset="0.5504" style="stop-color:#3B927E"/>
			<stop  offset="0.789" style="stop-color:#429E89"/>
			<stop  offset="1" style="stop-color:#44A28D"/>
		</linearGradient>
		<path class="st2" d="M212.21,417.79h44.37v-34.66H234.4v13.98C216.6,397.11,211.46,407.17,212.21,417.79z"/>
		<linearGradient id="SVGID_2_" gradientUnits="userSpaceOnUse" x1="264.7285" y1="347.9333" x2="221.7004" y2="347.3562">
			<stop  offset="0" style="stop-color:#1E6356"/>
			<stop  offset="0.197" style="stop-color:#22685B"/>
			<stop  offset="0.492" style="stop-color:#2C7868"/>
			<stop  offset="0.8466" style="stop-color:#3C9380"/>
			<stop  offset="1" style="stop-color:#44A28D"/>
		</linearGradient>
		<polygon class="st3" points="269.75,313.21 256.69,359.09 259.76,390.6 231.33,390.6 226.72,339.59 243.16,304.53 		"/>
		<linearGradient id="SVGID_3_" gradientUnits="userSpaceOnUse" x1="332.0728" y1="391.1947" x2="331.6526" y2="435.6311">
			<stop  offset="0" style="stop-color:#1E6356"/>
			<stop  offset="0.0385" style="stop-color:#216759"/>
			<stop  offset="0.2984" style="stop-color:#307F6E"/>
			<stop  offset="0.5504" style="stop-color:#3B927E"/>
			<stop  offset="0.789" style="stop-color:#429E89"/>
			<stop  offset="1" style="stop-color:#44A28D"/>
		</linearGradient>
		<path class="st4" d="M354.15,416.73h-44.37v-34.66h22.18v13.98C349.76,396.04,354.91,406.11,354.15,416.73z"/>
		<linearGradient id="SVGID_4_" gradientUnits="userSpaceOnUse" x1="296.6114" y1="346.503" x2="339.6433" y2="346.503">
			<stop  offset="0" style="stop-color:#1E6356"/>
			<stop  offset="0.1965" style="stop-color:#22685A"/>
			<stop  offset="0.4841" style="stop-color:#2B7767"/>
			<stop  offset="0.826" style="stop-color:#3A917E"/>
			<stop  offset="1" style="stop-color:#44A28D"/>
		</linearGradient>
		<polygon class="st5" points="296.61,312.15 309.67,358.03 306.6,389.53 335.03,389.53 339.64,338.52 323.2,303.47 		"/>
		<path class="st6" d="M430.51,248.83c6.68-4.29,15.58-2.35,19.86,4.34c4.29,6.68,2.35,15.58-4.34,19.86
			c-4.59,2.94-10.22,2.95-14.68,0.5l-17.05,10.94l-6.96-10.84l16.7-10.72C423.3,257.54,425.64,251.96,430.51,248.83z"/>
		<linearGradient id="SVGID_5_" gradientUnits="userSpaceOnUse" x1="337.8348" y1="282.1801" x2="428.0887" y2="282.1801">
			<stop  offset="0" style="stop-color:#1E6356"/>
			<stop  offset="0.1965" style="stop-color:#22685A"/>
			<stop  offset="0.4841" style="stop-color:#2B7767"/>
			<stop  offset="0.826" style="stop-color:#3A917E"/>
			<stop  offset="1" style="stop-color:#44A28D"/>
		</linearGradient>
		<polygon class="st7" points="417.05,263.66 428.09,281 384.74,310.16 337.83,280.21 352.02,254.2 386.31,277.45 		"/>
		<path class="st6" d="M136.68,250.82c-6.68-4.29-15.58-2.35-19.86,4.34c-4.29,6.68-2.35,15.58,4.34,19.86
			c4.59,2.94,10.22,2.95,14.68,0.5l17.05,10.94l6.96-10.84l-16.7-10.72C143.89,259.53,141.55,253.95,136.68,250.82z"/>
		<linearGradient id="SVGID_6_" gradientUnits="userSpaceOnUse" x1="220.9052" y1="283.8837" x2="130.6562" y2="285.0514">
			<stop  offset="0" style="stop-color:#1E6356"/>
			<stop  offset="0.1965" style="stop-color:#22685A"/>
			<stop  offset="0.4841" style="stop-color:#2B7767"/>
			<stop  offset="0.826" style="stop-color:#3A917E"/>
			<stop  offset="1" style="stop-color:#44A28D"/>
		</linearGradient>
		<polygon class="st8" points="150.14,265.65 139.11,282.99 182.46,312.15 229.36,282.2 215.17,256.19 180.88,279.44 		"/>
		<radialGradient id="SVGID_7_" cx="287.6064" cy="242.9572" r="90.3447" gradientUnits="userSpaceOnUse">
			<stop  offset="0" style="stop-color:#44A28D"/>
			<stop  offset="0.4731" style="stop-color:#43A18B"/>
			<stop  offset="0.6436" style="stop-color:#409A86"/>
			<stop  offset="0.765" style="stop-color:#3A907D"/>
			<stop  offset="0.8632" style="stop-color:#328270"/>
			<stop  offset="0.9463" style="stop-color:#277162"/>
			<stop  offset="1" style="stop-color:#1E6356"/>
		</radialGradient>
		<circle class="st9" cx="287.61" cy="242.96" r="94.51"/>
		<g>
			<path class="st10" d="M273.57,181.61h28.75l45.82,108.4h-31.98l-7.84-19.22H266.8l-7.69,19.22h-31.37L273.57,181.61z
				 M299.71,247.57l-11.99-30.6l-12.15,30.6H299.71z"/>
		</g>
	</g>
</g>
<g id="Calque_2" class="st0">
	<g class="st1">
		<linearGradient id="SVGID_8_" gradientUnits="userSpaceOnUse" x1="217.2396" y1="400.1727" x2="261.8046" y2="400.1727">
			<stop  offset="0" style="stop-color:#F7EA3E"/>
			<stop  offset="0.1185" style="stop-color:#F3E53F"/>
			<stop  offset="0.2696" style="stop-color:#E8D642"/>
			<stop  offset="0.4384" style="stop-color:#D7BE45"/>
			<stop  offset="0.62" style="stop-color:#C09F46"/>
			<stop  offset="0.8101" style="stop-color:#A67943"/>
			<stop  offset="1" style="stop-color:#8D503D"/>
		</linearGradient>
		<path class="st11" d="M212.59,417.55h44.49v-34.76h-22.25v14.02C217,396.81,211.83,406.9,212.59,417.55z"/>
		<linearGradient id="SVGID_9_" gradientUnits="userSpaceOnUse" x1="222.0874" y1="347.1259" x2="265.242" y2="347.1259">
			<stop  offset="0" style="stop-color:#F7EA3E"/>
			<stop  offset="0.1146" style="stop-color:#F3E53F"/>
			<stop  offset="0.2608" style="stop-color:#E8D642"/>
			<stop  offset="0.4241" style="stop-color:#D7BE45"/>
			<stop  offset="0.5998" style="stop-color:#C09F46"/>
			<stop  offset="0.7837" style="stop-color:#A67943"/>
			<stop  offset="0.9675" style="stop-color:#8D503D"/>
		</linearGradient>
		<polygon class="st12" points="270.3,312.68 257.2,358.69 260.28,390.28 231.77,390.28 227.14,339.12 243.63,303.97 		"/>
		<linearGradient id="SVGID_10_" gradientUnits="userSpaceOnUse" x1="348.2988" y1="398.8919" x2="303.7125" y2="399.509">
			<stop  offset="0" style="stop-color:#F7EA3E"/>
			<stop  offset="0.1185" style="stop-color:#F3E53F"/>
			<stop  offset="0.2696" style="stop-color:#E8D642"/>
			<stop  offset="0.4384" style="stop-color:#D7BE45"/>
			<stop  offset="0.62" style="stop-color:#C09F46"/>
			<stop  offset="0.8101" style="stop-color:#A67943"/>
			<stop  offset="1" style="stop-color:#8D503D"/>
		</linearGradient>
		<path class="st13" d="M354.94,416.49h-44.49v-34.76h22.25v14.02C350.53,395.74,355.7,405.84,354.94,416.49z"/>
		<linearGradient id="SVGID_11_" gradientUnits="userSpaceOnUse" x1="344.5789" y1="345.8175" x2="301.4303" y2="346.5302">
			<stop  offset="0" style="stop-color:#F7EA3E"/>
			<stop  offset="0.1185" style="stop-color:#F3E53F"/>
			<stop  offset="0.2696" style="stop-color:#E8D642"/>
			<stop  offset="0.4384" style="stop-color:#D7BE45"/>
			<stop  offset="0.62" style="stop-color:#C09F46"/>
			<stop  offset="0.8101" style="stop-color:#A67943"/>
			<stop  offset="1" style="stop-color:#8D503D"/>
		</linearGradient>
		<polygon class="st14" points="297.23,311.61 310.33,357.62 307.25,389.22 335.76,389.22 340.39,338.06 323.9,302.91 		"/>
		<path class="st15" d="M430.45,248.11c6.7-4.3,15.62-2.35,19.92,4.35c4.3,6.7,2.35,15.62-4.35,19.92
			c-4.6,2.95-10.25,2.96-14.73,0.5l-17.1,10.97l-6.98-10.87l16.75-10.75C423.22,256.84,425.56,251.25,430.45,248.11z"/>
		<linearGradient id="SVGID_12_" gradientUnits="userSpaceOnUse" x1="446.6437" y1="281.8468" x2="356.1311" y2="281.5103">
			<stop  offset="0" style="stop-color:#F7EA3E"/>
			<stop  offset="0.1185" style="stop-color:#F3E53F"/>
			<stop  offset="0.2696" style="stop-color:#E8D642"/>
			<stop  offset="0.4384" style="stop-color:#D7BE45"/>
			<stop  offset="0.62" style="stop-color:#C09F46"/>
			<stop  offset="0.8101" style="stop-color:#A67943"/>
			<stop  offset="1" style="stop-color:#8D503D"/>
		</linearGradient>
		<polygon class="st16" points="416.95,262.98 428.02,280.37 384.54,309.62 337.51,279.58 351.74,253.49 386.12,276.81 		"/>
		<path class="st15" d="M136.85,250.11c-6.7-4.3-15.62-2.35-19.92,4.35c-4.3,6.7-2.35,15.62,4.35,19.92
			c4.6,2.95,10.25,2.96,14.73,0.5l17.1,10.97l6.98-10.87l-16.75-10.75C144.08,258.84,141.73,253.25,136.85,250.11z"/>
		<linearGradient id="SVGID_13_" gradientUnits="userSpaceOnUse" x1="129.8639" y1="283.5501" x2="220.3749" y2="283.5501">
			<stop  offset="0" style="stop-color:#F7EA3E"/>
			<stop  offset="0.1185" style="stop-color:#F3E53F"/>
			<stop  offset="0.2696" style="stop-color:#E8D642"/>
			<stop  offset="0.4384" style="stop-color:#D7BE45"/>
			<stop  offset="0.62" style="stop-color:#C09F46"/>
			<stop  offset="0.8101" style="stop-color:#A67943"/>
			<stop  offset="1" style="stop-color:#8D503D"/>
		</linearGradient>
		<polygon class="st17" points="150.35,264.97 139.28,282.36 182.76,311.61 229.79,281.57 215.56,255.49 181.17,278.81 		"/>
		<radialGradient id="SVGID_14_" cx="284.1809" cy="242.5209" r="94.775" gradientUnits="userSpaceOnUse">
			<stop  offset="0" style="stop-color:#F7EA3E"/>
			<stop  offset="0.215" style="stop-color:#F5E73F"/>
			<stop  offset="0.3655" style="stop-color:#EFDF41"/>
			<stop  offset="0.4964" style="stop-color:#E4D043"/>
			<stop  offset="0.616" style="stop-color:#D5BD45"/>
			<stop  offset="0.7279" style="stop-color:#C4A446"/>
			<stop  offset="0.8342" style="stop-color:#AF8745"/>
			<stop  offset="0.9341" style="stop-color:#9B6841"/>
			<stop  offset="1" style="stop-color:#8D503D"/>
		</radialGradient>
		<circle class="st18" cx="284.18" cy="242.52" r="94.77"/>
		<g>
			<path class="st19" d="M243.36,189.88h54c13.24,0,22.56,3.31,28.73,9.48c4.21,4.21,6.77,9.78,6.77,17v0.3
				c0,12.18-6.92,19.4-16.25,23.46c12.79,4.21,20.91,11.43,20.91,25.72v0.3c0,18.05-14.74,29.03-39.86,29.03h-54.3V189.88z
				 M290.14,231.84c8.87,0,13.84-3.01,13.84-9.18v-0.3c0-5.72-4.51-9.02-13.24-9.02h-18.95v18.5H290.14z M294.35,271.7
				c8.87,0,13.99-3.46,13.99-9.63v-0.3c0-5.72-4.51-9.48-14.29-9.48h-22.26v19.4H294.35z"/>
		</g>
	</g>
</g>
<g id="Calque_3" class="st0">
	<g class="st1">
		<linearGradient id="SVGID_15_" gradientUnits="userSpaceOnUse" x1="219.7879" y1="397.0987" x2="264.5259" y2="397.9393">
			<stop  offset="0" style="stop-color:#C1101E"/>
			<stop  offset="0.2163" style="stop-color:#BE151E"/>
			<stop  offset="0.3677" style="stop-color:#B71F20"/>
			<stop  offset="0.4993" style="stop-color:#AA2921"/>
			<stop  offset="0.6197" style="stop-color:#993023"/>
			<stop  offset="0.7323" style="stop-color:#843524"/>
			<stop  offset="0.8392" style="stop-color:#6C3725"/>
			<stop  offset="0.9396" style="stop-color:#523423"/>
			<stop  offset="1" style="stop-color:#3F2E20"/>
		</linearGradient>
		<path class="st20" d="M212.94,414.83h44.64v-34.88h-22.32v14.06C217.36,394.01,212.18,404.14,212.94,414.83z"/>
		<linearGradient id="SVGID_16_" gradientUnits="userSpaceOnUse" x1="218.9361" y1="343.5564" x2="262.2109" y2="344.9348">
			<stop  offset="0" style="stop-color:#C1101E"/>
			<stop  offset="0.2163" style="stop-color:#BE151E"/>
			<stop  offset="0.3677" style="stop-color:#B71F20"/>
			<stop  offset="0.4993" style="stop-color:#AA2921"/>
			<stop  offset="0.6197" style="stop-color:#993023"/>
			<stop  offset="0.7323" style="stop-color:#843524"/>
			<stop  offset="0.8392" style="stop-color:#6C3725"/>
			<stop  offset="0.9396" style="stop-color:#523423"/>
			<stop  offset="1" style="stop-color:#3F2E20"/>
		</linearGradient>
		<polygon class="st21" points="270.84,309.61 257.69,355.77 260.79,387.46 232.18,387.46 227.54,336.14 244.09,300.87 		"/>
		<linearGradient id="SVGID_17_" gradientUnits="userSpaceOnUse" x1="347.3098" y1="394.4568" x2="302.9962" y2="400.4123">
			<stop  offset="0" style="stop-color:#C1101E"/>
			<stop  offset="0.2163" style="stop-color:#BE151E"/>
			<stop  offset="0.3677" style="stop-color:#B71F20"/>
			<stop  offset="0.4993" style="stop-color:#AA2921"/>
			<stop  offset="0.6197" style="stop-color:#993023"/>
			<stop  offset="0.7323" style="stop-color:#843524"/>
			<stop  offset="0.8392" style="stop-color:#6C3725"/>
			<stop  offset="0.9396" style="stop-color:#523423"/>
			<stop  offset="1" style="stop-color:#3F2E20"/>
		</linearGradient>
		<path class="st22" d="M355.76,413.76h-44.64v-34.88h22.32v14.06C351.34,392.95,356.52,403.07,355.76,413.76z"/>
		<linearGradient id="SVGID_18_" gradientUnits="userSpaceOnUse" x1="353.3013" y1="346.3955" x2="310.1749" y2="342.5576">
			<stop  offset="0" style="stop-color:#C1101E"/>
			<stop  offset="0.2163" style="stop-color:#BE151E"/>
			<stop  offset="0.3677" style="stop-color:#B71F20"/>
			<stop  offset="0.4993" style="stop-color:#AA2921"/>
			<stop  offset="0.6197" style="stop-color:#993023"/>
			<stop  offset="0.7323" style="stop-color:#843524"/>
			<stop  offset="0.8392" style="stop-color:#6C3725"/>
			<stop  offset="0.9396" style="stop-color:#523423"/>
			<stop  offset="1" style="stop-color:#3F2E20"/>
		</linearGradient>
		<polygon class="st23" points="297.86,308.54 311.01,354.7 307.91,386.4 336.52,386.4 341.16,335.07 324.62,299.8 		"/>
		<path class="st24" d="M432.59,244.83c6.72-4.31,15.67-2.36,19.99,4.36c4.31,6.72,2.36,15.67-4.36,19.99
			c-4.62,2.96-10.28,2.97-14.78,0.51l-17.15,11.01l-7-10.91l16.8-10.78C425.33,253.59,427.69,247.98,432.59,244.83z"/>
		<linearGradient id="SVGID_19_" gradientUnits="userSpaceOnUse" x1="458.4659" y1="277.8701" x2="367.6641" y2="278.3946">
			<stop  offset="0" style="stop-color:#C1101E"/>
			<stop  offset="0.2163" style="stop-color:#BE151E"/>
			<stop  offset="0.3677" style="stop-color:#B71F20"/>
			<stop  offset="0.4993" style="stop-color:#AA2921"/>
			<stop  offset="0.6197" style="stop-color:#993023"/>
			<stop  offset="0.7323" style="stop-color:#843524"/>
			<stop  offset="0.8392" style="stop-color:#6C3725"/>
			<stop  offset="0.9396" style="stop-color:#523423"/>
			<stop  offset="1" style="stop-color:#3F2E20"/>
		</linearGradient>
		<polygon class="st25" points="419.05,259.74 430.15,277.19 386.53,306.54 339.34,276.4 353.62,250.23 388.11,273.62 		"/>
		<path class="st24" d="M136.95,246.83c-6.72-4.31-15.67-2.36-19.99,4.36c-4.31,6.72-2.36,15.67,4.36,19.99
			c4.62,2.96,10.28,2.97,14.78,0.51l17.15,11.01l7-10.91L143.45,261C144.2,255.59,141.85,249.98,136.95,246.83z"/>
		<linearGradient id="SVGID_20_" gradientUnits="userSpaceOnUse" x1="109.2158" y1="278.7482" x2="199.9811" y2="280.3917">
			<stop  offset="0" style="stop-color:#C1101E"/>
			<stop  offset="0.2163" style="stop-color:#BE151E"/>
			<stop  offset="0.3677" style="stop-color:#B71F20"/>
			<stop  offset="0.4993" style="stop-color:#AA2921"/>
			<stop  offset="0.6197" style="stop-color:#993023"/>
			<stop  offset="0.7323" style="stop-color:#843524"/>
			<stop  offset="0.8392" style="stop-color:#6C3725"/>
			<stop  offset="0.9396" style="stop-color:#523423"/>
			<stop  offset="1" style="stop-color:#3F2E20"/>
		</linearGradient>
		<polygon class="st26" points="150.49,261.74 139.39,279.19 183.01,308.54 230.2,278.4 215.92,252.23 181.42,275.62 		"/>
		<radialGradient id="SVGID_21_" cx="284.7686" cy="244.5389" r="95.0874" gradientUnits="userSpaceOnUse">
			<stop  offset="0" style="stop-color:#C1101E"/>
			<stop  offset="0.3208" style="stop-color:#BF141E"/>
			<stop  offset="0.471" style="stop-color:#B91D1F"/>
			<stop  offset="0.5856" style="stop-color:#AE2621"/>
			<stop  offset="0.6823" style="stop-color:#A02E22"/>
			<stop  offset="0.7676" style="stop-color:#8D3324"/>
			<stop  offset="0.8449" style="stop-color:#793625"/>
			<stop  offset="0.9162" style="stop-color:#613625"/>
			<stop  offset="0.981" style="stop-color:#483122"/>
			<stop  offset="1" style="stop-color:#3F2E20"/>
		</radialGradient>
		<circle class="st27" cx="284.77" cy="244.54" r="95.09"/>
		<g>
			<path class="st28" d="M232.73,244.85v-0.31c0-31.64,24.35-56.46,57.23-56.46c22.18,0,36.45,9.31,46.07,22.64l-22.64,17.53
				c-6.2-7.76-13.34-12.72-23.73-12.72c-15.2,0-25.9,12.87-25.9,28.69v0.31c0,16.29,10.7,29,25.9,29c11.32,0,17.99-5.27,24.51-13.18
				l22.64,16.13c-10.24,14.11-24.04,24.51-48.08,24.51C257.7,300.99,232.73,277.26,232.73,244.85z"/>
		</g>
	</g>
</g>
<g id="Calque_4" class="st0">
	<g class="st1">
		<linearGradient id="SVGID_22_" gradientUnits="userSpaceOnUse" x1="214.3557" y1="402.3059" x2="258.8704" y2="406.7778">
			<stop  offset="0" style="stop-color:#6AA7DD"/>
			<stop  offset="0.3092" style="stop-color:#69A6DC"/>
			<stop  offset="0.454" style="stop-color:#65A0D6"/>
			<stop  offset="0.5646" style="stop-color:#6097CB"/>
			<stop  offset="0.6577" style="stop-color:#5889BD"/>
			<stop  offset="0.74" style="stop-color:#4F79AB"/>
			<stop  offset="0.8145" style="stop-color:#466597"/>
			<stop  offset="0.8832" style="stop-color:#3D5081"/>
			<stop  offset="0.9456" style="stop-color:#343B6C"/>
			<stop  offset="1" style="stop-color:#2C2B5A"/>
		</linearGradient>
		<path class="st29" d="M212.73,421.84h44.67v-34.9h-22.33v14.07C217.15,401.01,211.96,411.14,212.73,421.84z"/>
		<linearGradient id="SVGID_23_" gradientUnits="userSpaceOnUse" x1="215.7646" y1="349.3686" x2="258.9509" y2="352.8048">
			<stop  offset="0" style="stop-color:#6AA7DD"/>
			<stop  offset="0.3092" style="stop-color:#69A6DC"/>
			<stop  offset="0.454" style="stop-color:#65A0D6"/>
			<stop  offset="0.5646" style="stop-color:#6097CB"/>
			<stop  offset="0.6577" style="stop-color:#5889BD"/>
			<stop  offset="0.74" style="stop-color:#4F79AB"/>
			<stop  offset="0.8145" style="stop-color:#466597"/>
			<stop  offset="0.8832" style="stop-color:#3D5081"/>
			<stop  offset="0.9456" style="stop-color:#343B6C"/>
			<stop  offset="1" style="stop-color:#2C2B5A"/>
		</linearGradient>
		<polygon class="st30" points="270.65,316.55 257.5,362.74 260.6,394.45 231.97,394.45 227.33,343.1 243.89,307.81 		"/>
		<linearGradient id="SVGID_24_" gradientUnits="userSpaceOnUse" x1="354.7639" y1="401.4181" x2="310.199" y2="405.3586">
			<stop  offset="0" style="stop-color:#6AA7DD"/>
			<stop  offset="0.3092" style="stop-color:#69A6DC"/>
			<stop  offset="0.454" style="stop-color:#65A0D6"/>
			<stop  offset="0.5646" style="stop-color:#6097CB"/>
			<stop  offset="0.6577" style="stop-color:#5889BD"/>
			<stop  offset="0.74" style="stop-color:#4F79AB"/>
			<stop  offset="0.8145" style="stop-color:#466597"/>
			<stop  offset="0.8832" style="stop-color:#3D5081"/>
			<stop  offset="0.9456" style="stop-color:#343B6C"/>
			<stop  offset="1" style="stop-color:#2C2B5A"/>
		</linearGradient>
		<path class="st31" d="M355.62,420.77h-44.67v-34.9h22.33v14.07C351.2,399.94,356.39,410.07,355.62,420.77z"/>
		<linearGradient id="SVGID_25_" gradientUnits="userSpaceOnUse" x1="353.4176" y1="349.4846" x2="310.1086" y2="350.5744">
			<stop  offset="0" style="stop-color:#6AA7DD"/>
			<stop  offset="0.3092" style="stop-color:#69A6DC"/>
			<stop  offset="0.454" style="stop-color:#65A0D6"/>
			<stop  offset="0.5646" style="stop-color:#6097CB"/>
			<stop  offset="0.6577" style="stop-color:#5889BD"/>
			<stop  offset="0.74" style="stop-color:#4F79AB"/>
			<stop  offset="0.8145" style="stop-color:#466597"/>
			<stop  offset="0.8832" style="stop-color:#3D5081"/>
			<stop  offset="0.9456" style="stop-color:#343B6C"/>
			<stop  offset="1" style="stop-color:#2C2B5A"/>
		</linearGradient>
		<polygon class="st32" points="297.69,315.48 310.85,361.67 307.75,393.39 336.38,393.39 341.02,342.03 324.46,306.74 		"/>
		<path class="st33" d="M430.36,251.73c6.73-4.32,15.68-2.36,20,4.36c4.32,6.73,2.36,15.68-4.36,20
			c-4.62,2.96-10.29,2.97-14.78,0.51l-17.16,11.01l-7-10.91l16.81-10.79C423.11,260.5,425.46,254.88,430.36,251.73z"/>
		<linearGradient id="SVGID_26_" gradientUnits="userSpaceOnUse" x1="456.3709" y1="286.1952" x2="365.5083" y2="285.2826">
			<stop  offset="0" style="stop-color:#6AA7DD"/>
			<stop  offset="0.3092" style="stop-color:#69A6DC"/>
			<stop  offset="0.454" style="stop-color:#65A0D6"/>
			<stop  offset="0.5646" style="stop-color:#6097CB"/>
			<stop  offset="0.6577" style="stop-color:#5889BD"/>
			<stop  offset="0.74" style="stop-color:#4F79AB"/>
			<stop  offset="0.8145" style="stop-color:#466597"/>
			<stop  offset="0.8832" style="stop-color:#3D5081"/>
			<stop  offset="0.9456" style="stop-color:#343B6C"/>
			<stop  offset="1" style="stop-color:#2C2B5A"/>
		</linearGradient>
		<polygon class="st34" points="416.81,266.66 427.92,284.12 384.28,313.48 337.06,283.32 351.34,257.13 385.86,280.54 		"/>
		<path class="st33" d="M136.68,253.74c-6.73-4.32-15.68-2.36-20,4.36c-4.32,6.73-2.36,15.68,4.36,20
			c4.62,2.96,10.29,2.97,14.78,0.51L153,289.62l7-10.91l-16.81-10.79C143.94,262.5,141.59,256.89,136.68,253.74z"/>
		<linearGradient id="SVGID_27_" gradientUnits="userSpaceOnUse" x1="108.1594" y1="287.3086" x2="199.0231" y2="287.3086">
			<stop  offset="0" style="stop-color:#6AA7DD"/>
			<stop  offset="0.3092" style="stop-color:#69A6DC"/>
			<stop  offset="0.454" style="stop-color:#65A0D6"/>
			<stop  offset="0.5646" style="stop-color:#6097CB"/>
			<stop  offset="0.6577" style="stop-color:#5889BD"/>
			<stop  offset="0.74" style="stop-color:#4F79AB"/>
			<stop  offset="0.8145" style="stop-color:#466597"/>
			<stop  offset="0.8832" style="stop-color:#3D5081"/>
			<stop  offset="0.9456" style="stop-color:#343B6C"/>
			<stop  offset="1" style="stop-color:#2C2B5A"/>
		</linearGradient>
		<polygon class="st35" points="150.24,268.66 139.13,286.12 182.77,315.48 229.99,285.32 215.71,259.14 181.19,282.55 		"/>
		<radialGradient id="SVGID_28_" cx="281.6923" cy="243.7196" r="95.1443" gradientUnits="userSpaceOnUse">
			<stop  offset="0" style="stop-color:#6AA7DD"/>
			<stop  offset="0.3092" style="stop-color:#69A6DC"/>
			<stop  offset="0.454" style="stop-color:#65A0D6"/>
			<stop  offset="0.5646" style="stop-color:#6097CB"/>
			<stop  offset="0.6577" style="stop-color:#5889BD"/>
			<stop  offset="0.74" style="stop-color:#4F79AB"/>
			<stop  offset="0.8145" style="stop-color:#466597"/>
			<stop  offset="0.8832" style="stop-color:#3D5081"/>
			<stop  offset="0.9456" style="stop-color:#343B6C"/>
			<stop  offset="1" style="stop-color:#2C2B5A"/>
		</radialGradient>
		<circle class="st36" cx="281.69" cy="243.72" r="95.14"/>
		<g>
			<path class="st37" d="M241.16,191.54h40.25c37.27,0,58.88,21.47,58.88,51.58v0.3c0,30.11-21.91,52.47-59.48,52.47h-39.65V191.54z
				 M281.86,270.25c17.29,0,28.77-9.54,28.77-26.39v-0.3c0-16.7-11.48-26.39-28.77-26.39h-11.78v53.07H281.86z"/>
		</g>
	</g>
</g>
<g id="Calque_5" class="st0">
	<g class="st1">
		<radialGradient id="SVGID_29_" cx="314.8849" cy="215.988" r="48.9639" gradientUnits="userSpaceOnUse">
			<stop  offset="0" style="stop-color:#F7EA3E"/>
			<stop  offset="0.1015" style="stop-color:#F5E43D"/>
			<stop  offset="0.2754" style="stop-color:#EFD23B"/>
			<stop  offset="0.5005" style="stop-color:#E4B336"/>
			<stop  offset="0.7651" style="stop-color:#D6842D"/>
			<stop  offset="0.9963" style="stop-color:#CA5125"/>
		</radialGradient>
		<path class="st38" d="M368.95,200.38c-1.75-16.75-3.99-23.63-1.78-31.65c-6.91,8.1-14.37,11.48-20.55,15.21
			c-0.42-16.66-3.29-35.82-2.11-51.89c-3.62,7.49-7.42,13.31-14.56,24.7c-3.34,5.32-8.97,10.05-14.84,14.83
			c-2.2-6.72-5.38-14.05-5.25-24.4c-3.62,7.49-9.84,11.19-22.19,22.64c-12.35,11.45-14.66,31.51-6.29,40.29
			c0,0,5.66,6.26,14.45,7.18c1.96,3.51,4.82,6.23,8.55,7.51c0,0,2.38,4.51,19.78,7.44c3.33,0.56,6.13,0.24,8.52-0.76
			c6.94,4.26,14.47,3.36,14.47,3.36C359.22,233.74,370.7,217.13,368.95,200.38z"/>
		<path class="st39" d="M368.37,230.96l-101.56-38.17c-5.74,15.26,4.37,31.48,11.53,44.8c-9.51,14.79-18.58,32.8-26.13,52.9
			c-22.33,59.4-31.51,114.07-10.07,122.13c21.45,8.06,51.34-38.16,73.66-97.57c7.55-20.09,12.62-39.64,15.21-57.03
			C345.16,252.72,362.64,246.21,368.37,230.96z"/>
	</g>
</g>
<g id="Calque_6">
	<path class="st40" d="M534.36,379.91H40.95c-3.29,0-5.98-2.69-5.98-5.98V232.39c0-3.29,2.69-5.98,5.98-5.98h493.41
		c3.29,0,5.98,2.69,5.98,5.98v141.55C540.34,377.22,537.65,379.91,534.36,379.91z"/>
	<g>
		<path class="st41" d="M137.08,308.21l-15.52-25.55h12.89l8.4,14.88l8.46-14.88h12.66l-15.52,25.38v15.46h-11.38V308.21z"/>
		<path class="st41" d="M162.28,303.19v-0.12c0-11.73,9.45-21.24,22.05-21.24s21.94,9.39,21.94,21.12v0.12
			c0,11.73-9.45,21.24-22.05,21.24C171.61,324.31,162.28,314.92,162.28,303.19z M194.71,303.19v-0.12c0-5.89-4.26-11.03-10.5-11.03
			c-6.18,0-10.33,5.02-10.33,10.91v0.12c0,5.89,4.26,11.03,10.44,11.03C190.57,314.1,194.71,309.09,194.71,303.19z"/>
		<path class="st41" d="M211.63,305.59v-22.93h11.49v22.69c0,5.89,2.98,8.69,7.53,8.69c4.55,0,7.53-2.68,7.53-8.4v-22.99h11.49
			v22.64c0,13.18-7.53,18.96-19.14,18.96C218.92,324.25,211.63,318.36,211.63,305.59z"/>
		<path class="st41" d="M269.79,282.66h11.96l7.12,23.63l7.88-23.74h9.74l7.88,23.74l7.12-23.63h11.73l-13.65,41.13h-9.86
			l-8.23-23.51l-8.17,23.51h-9.86L269.79,282.66z"/>
		<path class="st41" d="M337.92,282.66h11.38v40.84h-11.38V282.66z"/>
		<path class="st41" d="M356.77,282.66h10.56l16.8,21.59v-21.59h11.2v40.84h-9.92l-17.44-22.4v22.4h-11.2V282.66z"/>
		<path class="st41" d="M418.25,287.62v-4.96h12.6v4.96l-3.38,22.58h-5.83L418.25,287.62z M418.77,313.58h11.55v9.92h-11.55V313.58z
			"/>
	</g>
</g>
</svg>
